<svg xmlns="http://www.w3.org/2000/svg" viewBox="0 0 128 92" fill="none"><defs><linearGradient id="kg" x1="0" y1="0" x2="128" y2="0" gradientUnits="userSpaceOnUse"><stop offset="0" stop-color="#0044E3"/><stop offset=".52" stop-color="#00B4FC"/><stop offset="1" stop-color="#02DEF5"/></linearGradient></defs><g fill="url(#kg)"><circle cx="15" cy="14" r="14"/><circle cx="113" cy="14" r="14"/><rect x="0" y="32.6" width="30" height="45.4" rx="15"/><rect x="98" y="32.6" width="30" height="45.4" rx="15"/><path d="M0 53.552C5.704 56.61 10.55 60.734 15.864 64.353C17.998 65.8 21.289 67.983 23.988 68C26.662 68 29.956 65.83 32.069 64.399C33.694 63.298 35.273 62.127 36.853 60.961C45.141 54.842 53.231 49.244 64 49.2C74.769 49.244 82.859 54.842 91.147 60.961C92.727 62.127 94.306 63.298 95.931 64.399C98.044 65.83 101.338 68 104.012 68C106.711 67.983 110.002 65.8 112.136 64.353C117.45 60.734 122.296 56.61 128 53.552L128 82.541C124.694 84.916 121.302 87.128 117.601 88.844C113.271 90.825 108.847 91.969 104.068 92C93.289 91.981 85.188 86.393 76.893 80.269C75.311 79.101 73.73 77.928 72.103 76.824C69.978 75.382 66.689 73.211 64 73.2C61.311 73.211 58.022 75.382 55.897 76.824C54.27 77.928 52.689 79.101 51.107 80.269C42.812 86.393 34.711 91.981 23.932 92C19.153 91.969 14.729 90.825 10.399 88.844C6.698 87.128 3.306 84.916 0 82.541Z"/></g></svg>
